# xmcd
#
# Track frame offsets:
#	150
#	18005
#	37467
#	63739
#
# Disc length: 962 seconds
#
# Revision: 1
# Processed by: cddbd v1.5.2PL0 Copyright (c) Steve Scherf et al.
# Submitted via: audiograbber 1.80
#
DISCID=3303c004
DTITLE=Amanda Easton - Celebrity
DYEAR=1900
DGENRE=
TTITLE0=Celebrity
TTITLE1=Infatuation
TTITLE2=Wonderland
TTITLE3=Data Track
EXTD=
EXTT0=
EXTT1=
EXTT2=
EXTT3=
PLAYORDER=
